# xmcd CD database file
#
# Track frame offsets:
#	150
#	35735
#	62318
#	92163
#	139243
#	167488
#	199525
#	214333
#	233943
#
# Disc length: 3450 seconds
#
# Revision: 1
# Processed by: cddbd v1.5.1PL0 Copyright (c) Steve Scherf et al.
# Submitted via: CDex 1.51
#
DISCID=7b0d7809
DTITLE=Various Artist - Temple Of Dub
DYEAR=1993
DGENRE=Rock
TTITLE0=Chari Chari - Beach Echo and Rim Shot Wave
TTITLE1=Permafrost - Cruisin'
TTITLE2=Indopepsychics - Tokyo Tekh Dub
TTITLE3=Dub Squad - Light In The Sky
TTITLE4=Natural Essence - Fear
TTITLE5=Dry and Heavy - Mr. Blueflame (Long Version)
TTITLE6=Three One Length - Blow Talk
TTITLE7=クボタタケシ - W59 Dub
TTITLE8=Headcase - A Big Shave
EXTD=YEAR: 1993
EXTT0=
EXTT1=
EXTT2=
EXTT3=
EXTT4=
EXTT5=
EXTT6=
EXTT7=
EXTT8=
PLAYORDER=
